<mxfile host="Electron" modified="2023-08-16T09:25:41.769Z" agent="Mozilla/5.0 (Windows NT 10.0; Win64; x64) AppleWebKit/537.36 (KHTML, like Gecko) draw.io/21.2.8 Chrome/112.0.5615.165 Electron/24.2.0 Safari/537.36" etag="3NB2JoUe_UW3cZ_yrt_F" version="21.2.8" type="device">
  <diagram name="第 1 页" id="hZHNZMP5M_iRD0ooPnMY">
    <mxGraphModel dx="1162" dy="559" grid="1" gridSize="10" guides="1" tooltips="1" connect="1" arrows="1" fold="1" page="0" pageScale="1" pageWidth="827" pageHeight="1169" math="0" shadow="0">
      <root>
        <mxCell id="0" />
        <mxCell id="1" parent="0" />
        <mxCell id="0nwP4JBlI1utq1KSn3Qp-8" value="" style="rounded=1;whiteSpace=wrap;html=1;fontSize=16;fillColor=#f0f0f0;arcSize=1;strokeColor=none;" parent="1" vertex="1">
          <mxGeometry x="700" y="510" width="800" height="810" as="geometry" />
        </mxCell>
        <mxCell id="0nwP4JBlI1utq1KSn3Qp-7" value="&lt;p style=&quot;background:#F0F0F0&quot; class=&quot;MsoNormal&quot;&gt;&lt;b style=&quot;mso-bidi-font-weight:&lt;br/&gt;normal&quot;&gt;&lt;span style=&quot;font-family:&amp;quot;Courier New&amp;quot;;color:#444444&quot; lang=&quot;EN-US&quot;&gt;user&amp;nbsp;&amp;nbsp;&lt;/span&gt;&lt;/b&gt;&lt;span style=&quot;font-family:&amp;quot;Courier New&amp;quot;;color:#444444&quot; lang=&quot;EN-US&quot;&gt;nginx;&lt;br&gt;&lt;b style=&quot;mso-bidi-font-weight:normal&quot;&gt;worker_processes&amp;nbsp;&amp;nbsp;&lt;/b&gt;auto;&lt;br&gt;&lt;b style=&quot;mso-bidi-font-weight:normal&quot;&gt;error_log&amp;nbsp;&amp;nbsp;&lt;/b&gt;/var/log/nginx/error.log &lt;/span&gt;&lt;span style=&quot;font-family:&amp;quot;Courier New&amp;quot;;color:#78A960&quot; lang=&quot;EN-US&quot;&gt;notice&lt;/span&gt;&lt;span style=&quot;font-family:&amp;quot;Courier New&amp;quot;;color:#444444&quot; lang=&quot;EN-US&quot;&gt;;&lt;br&gt;&lt;b style=&quot;mso-bidi-font-weight:normal&quot;&gt;pid&amp;nbsp;&amp;nbsp;&lt;/b&gt;/var/run/nginx.pid;&lt;br&gt;&lt;br&gt;&lt;br&gt;&lt;/span&gt;&lt;b style=&quot;mso-bidi-font-weight:normal&quot;&gt;&lt;span style=&quot;font-family:&amp;quot;Courier New&amp;quot;;color:#880000&quot; lang=&quot;EN-US&quot;&gt;events&lt;/span&gt;&lt;/b&gt;&lt;span style=&quot;font-family:&amp;quot;Courier New&amp;quot;;color:#444444&quot; lang=&quot;EN-US&quot;&gt; {&lt;br&gt;&lt;span style=&quot;mso-spacerun:yes&quot;&gt;&amp;nbsp;&amp;nbsp;&amp;nbsp; &lt;/span&gt;&lt;b style=&quot;mso-bidi-font-weight:normal&quot;&gt;worker_connections&lt;/b&gt;&lt;span style=&quot;mso-spacerun:yes&quot;&gt;&amp;nbsp; &lt;/span&gt;&lt;/span&gt;&lt;span style=&quot;font-family:&lt;br/&gt;&amp;quot;Courier New&amp;quot;;color:#880000&quot; lang=&quot;EN-US&quot;&gt;1024&lt;/span&gt;&lt;span style=&quot;font-family:&lt;br/&gt;&amp;quot;Courier New&amp;quot;;color:#444444&quot; lang=&quot;EN-US&quot;&gt;;&lt;br&gt;}&lt;br&gt;&lt;br&gt;&lt;br&gt;&lt;/span&gt;&lt;b style=&quot;mso-bidi-font-weight:normal&quot;&gt;&lt;span style=&quot;font-family:&amp;quot;Courier New&amp;quot;;color:#880000&quot; lang=&quot;EN-US&quot;&gt;http&lt;/span&gt;&lt;/b&gt;&lt;span style=&quot;font-family:&amp;quot;Courier New&amp;quot;;color:#444444&quot; lang=&quot;EN-US&quot;&gt; {&lt;br&gt;&lt;span style=&quot;mso-spacerun:yes&quot;&gt;&amp;nbsp;&amp;nbsp;&amp;nbsp; &lt;/span&gt;&lt;b style=&quot;mso-bidi-font-weight:normal&quot;&gt;include&amp;nbsp;&amp;nbsp;&lt;/b&gt;/etc/nginx/mime.types;&lt;br&gt;&lt;span style=&quot;mso-spacerun:yes&quot;&gt;&amp;nbsp;&amp;nbsp;&amp;nbsp; &lt;/span&gt;&lt;b style=&quot;mso-bidi-font-weight:normal&quot;&gt;default_type&amp;nbsp;&amp;nbsp;&lt;/b&gt;application/octet-stream;&lt;br&gt;&lt;span style=&quot;mso-spacerun:yes&quot;&gt;&amp;nbsp;&amp;nbsp;&amp;nbsp; &lt;/span&gt;&lt;b style=&quot;mso-bidi-font-weight:normal&quot;&gt;log_format&amp;nbsp;&amp;nbsp;&lt;/b&gt;main&lt;span style=&quot;mso-spacerun:yes&quot;&gt;&amp;nbsp; &lt;/span&gt;&lt;/span&gt;&lt;span style=&quot;font-family:&amp;quot;Courier New&amp;quot;;color:#880000&quot; lang=&quot;EN-US&quot;&gt;&#39;&lt;/span&gt;&lt;span style=&quot;font-family:&amp;quot;Courier New&amp;quot;;color:#BC6060&quot; lang=&quot;EN-US&quot;&gt;$remote_addr&lt;/span&gt;&lt;span style=&quot;font-family:&amp;quot;Courier New&amp;quot;;color:#880000&quot; lang=&quot;EN-US&quot;&gt; - &lt;/span&gt;&lt;span style=&quot;font-family:&amp;quot;Courier New&amp;quot;;color:#BC6060&quot; lang=&quot;EN-US&quot;&gt;$remote_user&lt;/span&gt;&lt;span style=&quot;font-family:&amp;quot;Courier New&amp;quot;;color:#880000&quot; lang=&quot;EN-US&quot;&gt; [&lt;/span&gt;&lt;span style=&quot;font-family:&amp;quot;Courier New&amp;quot;;color:#BC6060&quot; lang=&quot;EN-US&quot;&gt;$time_local&lt;/span&gt;&lt;span style=&quot;font-family:&amp;quot;Courier New&amp;quot;;color:#880000&quot; lang=&quot;EN-US&quot;&gt;] &quot;&lt;/span&gt;&lt;span style=&quot;font-family:&amp;quot;Courier New&amp;quot;;color:#BC6060&quot; lang=&quot;EN-US&quot;&gt;$request&lt;/span&gt;&lt;span style=&quot;font-family:&amp;quot;Courier New&amp;quot;;color:#880000&quot; lang=&quot;EN-US&quot;&gt;&quot; &#39;&lt;/span&gt;&lt;span style=&quot;font-family:&amp;quot;Courier New&amp;quot;;color:#444444&quot; lang=&quot;EN-US&quot;&gt;&lt;br&gt;&lt;span style=&quot;mso-spacerun:yes&quot;&gt;&amp;nbsp;&amp;nbsp;&amp;nbsp;&amp;nbsp;&amp;nbsp;&amp;nbsp;&amp;nbsp;&amp;nbsp;&amp;nbsp;&amp;nbsp;&amp;nbsp;&amp;nbsp;&amp;nbsp;&amp;nbsp;&amp;nbsp;&amp;nbsp;&amp;nbsp;&amp;nbsp;&amp;nbsp;&amp;nbsp;&amp;nbsp; &lt;/span&gt;&lt;/span&gt;&lt;span style=&quot;font-family:&amp;quot;Courier New&amp;quot;;color:#880000&quot; lang=&quot;EN-US&quot;&gt;&#39;&lt;/span&gt;&lt;span style=&quot;font-family:&amp;quot;Courier New&amp;quot;;color:#BC6060&quot; lang=&quot;EN-US&quot;&gt;$status&lt;/span&gt;&lt;span style=&quot;font-family:&amp;quot;Courier New&amp;quot;;color:#880000&quot; lang=&quot;EN-US&quot;&gt; &lt;/span&gt;&lt;span style=&quot;font-family:&amp;quot;Courier New&amp;quot;;color:#BC6060&quot; lang=&quot;EN-US&quot;&gt;$body_bytes_sent&lt;/span&gt;&lt;span style=&quot;font-family:&amp;quot;Courier New&amp;quot;;color:#880000&quot; lang=&quot;EN-US&quot;&gt; &quot;&lt;/span&gt;&lt;span style=&quot;font-family:&amp;quot;Courier New&amp;quot;;color:#BC6060&quot; lang=&quot;EN-US&quot;&gt;$http_referer&lt;/span&gt;&lt;span style=&quot;font-family:&amp;quot;Courier New&amp;quot;;color:#880000&quot; lang=&quot;EN-US&quot;&gt;&quot; &#39;&lt;/span&gt;&lt;span style=&quot;font-family:&amp;quot;Courier New&amp;quot;;color:#444444&quot; lang=&quot;EN-US&quot;&gt;&lt;br&gt;&lt;span style=&quot;mso-spacerun:yes&quot;&gt;&amp;nbsp;&amp;nbsp;&amp;nbsp;&amp;nbsp;&amp;nbsp;&amp;nbsp;&amp;nbsp;&amp;nbsp;&amp;nbsp;&amp;nbsp;&amp;nbsp;&amp;nbsp;&amp;nbsp;&amp;nbsp;&amp;nbsp;&amp;nbsp;&amp;nbsp;&amp;nbsp;&amp;nbsp;&amp;nbsp;&amp;nbsp; &lt;/span&gt;&lt;/span&gt;&lt;span style=&quot;font-family:&amp;quot;Courier New&amp;quot;;color:#880000&quot; lang=&quot;EN-US&quot;&gt;&#39;&quot;&lt;/span&gt;&lt;span style=&quot;font-family:&amp;quot;Courier New&amp;quot;;color:#BC6060&quot; lang=&quot;EN-US&quot;&gt;$http_user_agent&lt;/span&gt;&lt;span style=&quot;font-family:&amp;quot;Courier New&amp;quot;;color:#880000&quot; lang=&quot;EN-US&quot;&gt;&quot; &quot;&lt;/span&gt;&lt;span style=&quot;font-family:&amp;quot;Courier New&amp;quot;;color:#BC6060&quot; lang=&quot;EN-US&quot;&gt;$http_x_forwarded_for&lt;/span&gt;&lt;span style=&quot;font-family:&amp;quot;Courier New&amp;quot;;color:#880000&quot; lang=&quot;EN-US&quot;&gt;&quot;&#39;&lt;/span&gt;&lt;span style=&quot;font-family:&amp;quot;Courier New&amp;quot;;color:#444444&quot; lang=&quot;EN-US&quot;&gt;;&lt;br&gt;&lt;span style=&quot;mso-spacerun:yes&quot;&gt;&amp;nbsp;&amp;nbsp;&amp;nbsp; &lt;/span&gt;&lt;b style=&quot;mso-bidi-font-weight:normal&quot;&gt;access_log&amp;nbsp;&amp;nbsp;&lt;/b&gt;/var/log/nginx/access.log&lt;span style=&quot;mso-spacerun:yes&quot;&gt;&amp;nbsp; &lt;/span&gt;main;&lt;br&gt;&lt;span style=&quot;mso-spacerun:yes&quot;&gt;&amp;nbsp;&amp;nbsp;&amp;nbsp; &lt;/span&gt;&lt;b style=&quot;mso-bidi-font-weight:normal&quot;&gt;sendfile&amp;nbsp;&amp;nbsp;&lt;/b&gt;&lt;/span&gt;&lt;span style=&quot;font-family:&amp;quot;Courier New&amp;quot;;color:#78A960&quot; lang=&quot;EN-US&quot;&gt;on&lt;/span&gt;&lt;span style=&quot;font-family:&amp;quot;Courier New&amp;quot;;color:#444444&quot; lang=&quot;EN-US&quot;&gt;;&lt;br&gt;&lt;span style=&quot;mso-spacerun:yes&quot;&gt;&amp;nbsp;&amp;nbsp;&amp;nbsp; &lt;/span&gt;&lt;b style=&quot;mso-bidi-font-weight:normal&quot;&gt;keepalive_timeout&lt;/b&gt;&lt;span style=&quot;mso-spacerun:yes&quot;&gt;&amp;nbsp; &lt;/span&gt;&lt;/span&gt;&lt;span style=&quot;font-family:&lt;br/&gt;&amp;quot;Courier New&amp;quot;;color:#880000&quot; lang=&quot;EN-US&quot;&gt;65&lt;/span&gt;&lt;span style=&quot;font-family:&amp;quot;Courier New&amp;quot;;&lt;br/&gt;color:#444444&quot; lang=&quot;EN-US&quot;&gt;;&lt;br&gt;&lt;br&gt;&lt;br&gt;&lt;span style=&quot;mso-spacerun:yes&quot;&gt;&amp;nbsp;&amp;nbsp;&amp;nbsp; &lt;/span&gt;&lt;/span&gt;&lt;b style=&quot;mso-bidi-font-weight:&lt;br/&gt;normal&quot;&gt;&lt;span style=&quot;font-family:&amp;quot;Courier New&amp;quot;;color:#880000&quot; lang=&quot;EN-US&quot;&gt;server&lt;/span&gt;&lt;/b&gt;&lt;span style=&quot;font-family:&amp;quot;Courier New&amp;quot;;color:#444444&quot; lang=&quot;EN-US&quot;&gt; {&lt;br&gt;&lt;span style=&quot;mso-spacerun:yes&quot;&gt;&amp;nbsp;&amp;nbsp;&amp;nbsp;&amp;nbsp;&amp;nbsp;&amp;nbsp;&amp;nbsp; &lt;/span&gt;&lt;b style=&quot;mso-bidi-font-weight:&lt;br/&gt;normal&quot;&gt;listen&amp;nbsp;&amp;nbsp;&lt;/b&gt;&lt;/span&gt;&lt;span style=&quot;font-family:&amp;quot;Courier New&amp;quot;;color:#880000&quot; lang=&quot;EN-US&quot;&gt;80&lt;/span&gt;&lt;span style=&quot;font-family:&amp;quot;Courier New&amp;quot;;color:#444444&quot; lang=&quot;EN-US&quot;&gt;;&lt;br&gt;&lt;span style=&quot;mso-spacerun:yes&quot;&gt;&amp;nbsp;&amp;nbsp;&amp;nbsp;&amp;nbsp;&amp;nbsp;&amp;nbsp;&amp;nbsp; &lt;/span&gt;&lt;b style=&quot;mso-bidi-font-weight:&lt;br/&gt;normal&quot;&gt;server_name&amp;nbsp;&amp;nbsp;&lt;/b&gt;localhost;&lt;br&gt;&lt;br&gt;&lt;br&gt;&amp;nbsp; &amp;nbsp; &amp;nbsp; &amp;nbsp;&amp;nbsp;&lt;b style=&quot;border-color: var(--border-color);&quot;&gt;location&lt;/b&gt;&amp;nbsp;/ {&lt;br style=&quot;border-color: var(--border-color);&quot;&gt;&lt;span style=&quot;border-color: var(--border-color);&quot;&gt;&amp;nbsp;&amp;nbsp;&amp;nbsp;&amp;nbsp;&amp;nbsp;&amp;nbsp;&amp;nbsp;&amp;nbsp;&amp;nbsp;&amp;nbsp;&amp;nbsp;&amp;nbsp;&lt;/span&gt;&lt;b style=&quot;border-color: var(--border-color);&quot;&gt;root&amp;nbsp;&amp;nbsp;&lt;/b&gt;/usr/share/nginx/html;&lt;br style=&quot;border-color: var(--border-color);&quot;&gt;&lt;span style=&quot;border-color: var(--border-color);&quot;&gt;&amp;nbsp;&amp;nbsp;&amp;nbsp;&amp;nbsp;&amp;nbsp;&amp;nbsp;&amp;nbsp;&amp;nbsp;&amp;nbsp;&amp;nbsp;&amp;nbsp;&amp;nbsp;&lt;/span&gt;&lt;b style=&quot;border-color: var(--border-color);&quot;&gt;index&amp;nbsp;&amp;nbsp;&lt;/b&gt;index.html;&lt;br style=&quot;border-color: var(--border-color);&quot;&gt;&lt;span style=&quot;border-color: var(--border-color);&quot;&gt;&amp;nbsp;&amp;nbsp;&lt;/span&gt;&lt;span style=&quot;border-color: var(--border-color);&quot;&gt;&amp;nbsp;&amp;nbsp;&amp;nbsp;&amp;nbsp;&amp;nbsp;&amp;nbsp;&lt;/span&gt;}&lt;br&gt;&lt;span style=&quot;mso-spacerun:yes&quot;&gt;&amp;nbsp;&amp;nbsp;&amp;nbsp; &lt;/span&gt;}&lt;br&gt;&lt;br&gt;&lt;span style=&quot;mso-spacerun:yes&quot;&gt;&amp;nbsp;&amp;nbsp;&amp;nbsp; &lt;/span&gt;&lt;b style=&quot;mso-bidi-font-weight:normal&quot;&gt;include&amp;nbsp;&amp;nbsp;&lt;/b&gt;/etc/nginx/conf.d/&lt;/span&gt;&lt;span style=&quot;font-family:&amp;quot;Courier New&amp;quot;;&lt;br/&gt;color:#BC6060&quot; lang=&quot;EN-US&quot;&gt;*.conf&lt;/span&gt;&lt;span style=&quot;font-family:&amp;quot;Courier New&amp;quot;;&lt;br/&gt;color:#444444&quot; lang=&quot;EN-US&quot;&gt;;&lt;br&gt;}&lt;/span&gt;&lt;span lang=&quot;EN-US&quot;&gt;&lt;/span&gt;&lt;/p&gt;" style="text;whiteSpace=wrap;html=1;fontSize=16;" parent="1" vertex="1">
          <mxGeometry x="730" y="540" width="760" height="640" as="geometry" />
        </mxCell>
        <mxCell id="0nwP4JBlI1utq1KSn3Qp-9" value="main block" style="rounded=0;whiteSpace=wrap;html=1;fontSize=18;fillColor=none;align=left;verticalAlign=top;strokeColor=#FF0000;fontStyle=1;fontColor=#FF0000;strokeWidth=2;" parent="1" vertex="1">
          <mxGeometry x="720" y="530" width="760" height="780" as="geometry" />
        </mxCell>
        <mxCell id="0nwP4JBlI1utq1KSn3Qp-10" value="events block" style="rounded=0;whiteSpace=wrap;html=1;fontSize=18;fillColor=none;align=left;verticalAlign=top;strokeColor=#007FFF;fontColor=#007FFF;fontStyle=1;strokeWidth=2;" parent="1" vertex="1">
          <mxGeometry x="728" y="663" width="742" height="90" as="geometry" />
        </mxCell>
        <mxCell id="0nwP4JBlI1utq1KSn3Qp-11" value="http block" style="rounded=0;whiteSpace=wrap;html=1;fontSize=18;fillColor=none;align=left;verticalAlign=top;fontStyle=1;strokeColor=#00CC00;strokeWidth=2;fontColor=#00CC00;" parent="1" vertex="1">
          <mxGeometry x="728" y="760" width="742" height="540" as="geometry" />
        </mxCell>
        <mxCell id="0nwP4JBlI1utq1KSn3Qp-12" value="server block" style="rounded=0;whiteSpace=wrap;html=1;fontSize=18;fillColor=none;align=left;verticalAlign=top;fontStyle=1;fontColor=#FF8000;strokeColor=#FF8000;strokeWidth=2;" parent="1" vertex="1">
          <mxGeometry x="764" y="990" width="696" height="250" as="geometry" />
        </mxCell>
        <mxCell id="0nwP4JBlI1utq1KSn3Qp-13" value="location block" style="rounded=0;whiteSpace=wrap;html=1;fontSize=16;fillColor=none;align=left;verticalAlign=top;strokeWidth=2;fontStyle=1;fontColor=#9933FF;strokeColor=#9933FF;" parent="1" vertex="1">
          <mxGeometry x="800" y="1090" width="650" height="130" as="geometry" />
        </mxCell>
      </root>
    </mxGraphModel>
  </diagram>
</mxfile>
